# xmcd
#
# Track frame offsets:
#	150
#	22725
#	37835
#	60584
#	84208
#	101050
#	119311
#	139650
#	160420
#	182702
#	198630
#	214740
#
# Disc length: 3075 seconds
#
# Revision: 1
# Processed by: cddbd v1.5.2PL0 Copyright (c) Steve Scherf et al.
# Submitted via: audiograbber 1.83.01
#
DISCID=990c010c
DTITLE=Variousb Artists - Rock Hard Lauschangriff Volume 43
DYEAR=2016
DGENRE=Metal
TTITLE0=Metal Church - No tomorrow (edit)
TTITLE1=Anvil - Ambushed
TTITLE2=Accu§er - Tribulation
TTITLE3=Deströyer 666 - Hounds at ya back
TTITLE4=The new roses - I believe
TTITLE5=Ricky Warwick - Celebrating sinking
TTITLE6=Magnum - Gypsy Queen
TTITLE7=Almanac - Sel-blinded eyes (edit)
TTITLE8=Redemption - Damaged
TTITLE9=Greenleaf - Tyrants tongue
TTITLE10=Mars Red Sky - Mindreader (Edit)
TTITLE11=From ashes to new - Through it all
EXTD=
EXTT0=
EXTT1=
EXTT2=
EXTT3=
EXTT4=
EXTT5=
EXTT6=
EXTT7=
EXTT8=
EXTT9=
EXTT10=
EXTT11=
PLAYORDER=
